<?xml version="1.0" standalone="no"?><!-- Generator: Gravit.io --><svg xmlns="http://www.w3.org/2000/svg" xmlns:xlink="http://www.w3.org/1999/xlink" style="isolation:isolate" viewBox="0 0 256 96" width="256" height="96"><defs><clipPath id="_clipPath_4WZXka24v8PrSapSDS3WeYVXHrTTYsNo"><rect width="256" height="96"/></clipPath></defs><g clip-path="url(#_clipPath_4WZXka24v8PrSapSDS3WeYVXHrTTYsNo)"><g id="Group"><g id="Brand"><g id="Logotype"><path d=" M 96.169 21.375 L 99.012 21.375 L 99.012 63.626 L 99.012 63.626 Q 98.942 66.258 100.363 67.643 L 100.363 67.643 L 100.363 67.643 Q 101.788 69.031 104.417 69.031 L 104.417 69.031 L 108.331 69.031 L 108.686 71.095 L 108.686 71.095 Q 106.98 71.664 103.708 71.664 L 103.708 71.664 L 103.708 71.664 Q 100.223 71.664 98.196 69.67 L 98.196 69.67 L 98.196 69.67 Q 96.169 67.68 96.169 64.05 L 96.169 64.05 L 96.169 21.375 Z  M 128.177 55.447 L 128.177 55.447 L 109.897 55.447 L 109.897 55.447 Q 110.181 63.271 113.168 66.366 L 113.168 66.366 L 113.168 66.366 Q 116.155 69.46 122.842 69.46 L 122.842 69.46 L 122.842 69.46 Q 128.746 69.46 134.576 68.603 L 134.576 68.603 L 134.934 70.597 L 134.934 70.597 Q 130.666 72.018 122.484 72.018 L 122.484 72.018 L 122.484 72.018 Q 114.165 72.018 110.535 67.857 L 110.535 67.857 L 110.535 67.857 Q 106.91 63.696 106.91 53.882 L 106.91 53.882 L 106.91 53.882 Q 106.91 44.064 110.358 40.047 L 110.358 40.047 L 110.358 40.047 Q 113.807 36.026 121.915 36.026 L 121.915 36.026 L 121.915 36.026 Q 135.503 36.026 135.717 46.128 L 135.717 46.128 L 135.717 46.128 Q 135.857 50.821 134.044 53.132 L 134.044 53.132 L 134.044 53.132 Q 132.231 55.447 128.177 55.447 Z  M 109.897 53.099 L 109.897 53.099 L 127.749 53.099 L 127.749 53.099 Q 133.014 53.099 132.8 46.268 L 132.8 46.268 L 132.8 46.268 Q 132.73 42.288 130.13 40.438 L 130.13 40.438 L 130.13 40.438 Q 127.535 38.588 122.059 38.588 L 122.059 38.588 L 122.059 38.588 Q 115.372 38.588 112.67 41.79 L 112.67 41.79 L 112.67 41.79 Q 109.967 44.991 109.897 53.099 Z  M 138.988 39.655 L 138.988 39.655 L 138.704 37.521 L 138.704 37.521 Q 149.515 36.026 155.061 36.026 L 155.061 36.026 L 155.061 36.026 Q 165.163 36.026 165.163 45.984 L 165.163 45.984 L 165.163 71.166 L 163.029 71.166 L 162.53 64.833 L 162.53 64.833 Q 159.898 67.396 155.452 69.53 L 155.452 69.53 L 155.452 69.53 Q 151.007 71.664 146.598 71.664 L 146.598 71.664 L 146.598 71.664 Q 142.19 71.664 139.734 69.353 L 139.734 69.353 L 139.734 69.353 Q 137.279 67.041 137.279 62.773 L 137.279 62.773 L 137.279 58.505 L 137.279 58.505 Q 137.279 54.591 139.52 52.457 L 139.52 52.457 L 139.52 52.457 Q 141.761 50.322 145.815 50.322 L 145.815 50.322 L 162.316 50.322 L 162.316 45.984 L 162.316 45.984 Q 162.316 42.428 160.61 40.508 L 160.61 40.508 L 160.61 40.508 Q 158.905 38.588 154.706 38.588 L 154.706 38.588 L 154.706 38.588 Q 148.588 38.588 138.988 39.655 Z  M 140.196 58.719 L 140.196 58.719 L 140.196 62.559 L 140.196 62.559 Q 140.196 68.961 146.882 69.031 L 146.882 69.031 L 146.882 69.031 Q 150.438 69.102 154.85 67.218 L 154.85 67.218 L 154.85 67.218 Q 159.259 65.332 162.316 62.489 L 162.316 62.489 L 162.316 52.601 L 146.1 52.815 L 146.1 52.815 Q 140.196 52.885 140.196 58.719 Z  M 190.769 20.662 L 190.629 22.796 L 182.945 22.796 L 182.945 22.796 Q 178.961 22.796 177.292 24.432 L 177.292 24.432 L 177.292 24.432 Q 175.62 26.068 175.62 30.122 L 175.62 30.122 L 175.62 36.882 L 187.852 36.882 L 187.852 39.301 L 175.62 39.301 L 175.62 71.166 L 172.773 71.166 L 172.773 39.301 L 166.585 39.301 L 166.585 37.237 L 172.773 36.953 L 172.773 29.982 L 172.773 29.982 Q 172.773 25.074 174.944 22.689 L 174.944 22.689 L 174.944 22.689 Q 177.111 20.308 182.022 20.308 L 182.022 20.308 L 182.022 20.308 Q 187.642 20.308 190.769 20.662 L 190.769 20.662 Z " fill-rule="evenodd" fill="rgb(73,101,115)"/><path d=" M 191.519 41.472 L 191.519 41.472 L 191.168 37.739 L 191.168 37.739 Q 196.304 36.879 201.038 36.879 L 201.038 36.879 L 201.038 36.879 Q 206.772 36.879 209.264 38.555 L 209.264 38.555 L 209.264 38.555 Q 211.756 40.228 211.756 44.533 L 211.756 44.533 L 211.756 44.533 Q 211.756 51.947 206.72 52.855 L 206.72 52.855 L 206.72 53.047 L 206.72 53.047 Q 209.91 53.575 211.232 55.606 L 211.232 55.606 L 211.232 55.606 Q 212.554 57.641 212.654 61.322 L 212.654 61.322 L 212.654 61.322 Q 212.753 66.439 210.209 68.784 L 210.209 68.784 L 210.209 68.784 Q 207.669 71.129 201.636 71.129 L 201.636 71.129 L 201.636 71.129 Q 196.902 71.129 190.622 70.268 L 190.622 70.268 L 190.921 66.391 L 190.921 66.391 Q 196.751 66.871 200.391 66.871 L 200.391 66.871 L 200.391 66.871 Q 204.427 66.871 206.074 65.531 L 206.074 65.531 L 206.074 65.531 Q 207.717 64.194 207.717 60.798 L 207.717 60.798 L 207.717 60.798 Q 207.717 57.881 206.373 56.466 L 206.373 56.466 L 206.373 56.466 Q 205.025 55.056 201.237 55.056 L 201.237 55.056 L 194.908 55.056 L 194.908 51.327 L 201.237 51.327 L 201.237 51.327 Q 204.778 51.279 205.874 49.842 L 205.874 49.842 L 205.874 49.842 Q 206.971 48.406 206.971 45.681 L 206.971 45.681 L 206.971 45.681 Q 206.919 42.764 205.575 41.926 L 205.575 41.926 L 205.575 41.926 Q 204.228 41.088 200.292 41.088 L 200.292 41.088 L 200.292 41.088 Q 196.204 41.088 191.519 41.472 Z  M 215.046 70.508 L 215.046 70.508 L 215.046 37.503 L 215.046 37.503 Q 221.574 37.071 227.456 37.071 L 227.456 37.071 L 227.456 37.071 Q 235.033 37.071 238.049 40.756 L 238.049 40.756 L 238.049 40.756 Q 241.062 44.437 241.062 54.004 L 241.062 54.004 L 241.062 54.004 Q 241.062 63.57 238.049 67.255 L 238.049 67.255 L 238.049 67.255 Q 235.033 70.937 227.456 70.937 L 227.456 70.937 L 227.456 70.937 Q 221.574 70.937 215.046 70.508 Z  M 220.027 41.28 L 220.027 41.28 L 220.027 66.631 L 220.027 66.631 Q 223.217 66.775 227.456 66.775 L 227.456 66.775 L 227.456 66.775 Q 232.142 66.775 233.962 64.002 L 233.962 64.002 L 233.962 64.002 Q 235.778 61.226 235.778 54.004 L 235.778 54.004 L 235.778 54.004 Q 235.778 46.782 233.962 44.009 L 233.962 44.009 L 233.962 44.009 Q 232.142 41.232 227.456 41.232 L 227.456 41.232 L 227.456 41.232 Q 225.961 41.232 223.494 41.258 L 223.494 41.258 L 223.494 41.258 Q 221.024 41.28 220.027 41.28 Z " fill-rule="evenodd" fill="rgb(73,101,115)"/></g></g></g><g id="Logo"><path d=" M 23.578 14.769 L 72.759 14.769 C 77.526 14.769 81.399 18.642 81.399 23.409 L 81.399 72.591 C 81.399 77.358 77.526 81.231 72.759 81.231 L 23.578 81.231 C 18.807 81.231 14.938 77.358 14.938 72.591 L 14.938 23.409 C 14.938 18.642 18.807 14.769 23.578 14.769 Z " fill="rgb(73,101,115)"/><path d=" M 55.058 31.632 C 55.036 30.838 54.29 29.937 53.541 30.273 L 29.921 40.848 C 29.172 41.18 28.67 41.575 28.492 42.354 L 24.191 61.278 C 24.014 62.057 24.892 62.677 25.708 62.636 L 55.058 31.632 Z " fill="rgb(255,255,255)"/><path d=" M 69.082 24.074 C 70.529 23.797 72.449 24.321 72.132 25.329 L 62.17 57.186 C 61.856 58.194 61.339 58.937 59.999 59.45 L 27.455 71.841 C 26.114 72.351 24.649 71.557 24.409 70.582 L 69.082 24.074 Z " fill="rgb(255,255,255)"/></g></g></svg>