<?xml version="1.0" standalone="no"?><!-- Generator: Gravit.io --><svg xmlns="http://www.w3.org/2000/svg" xmlns:xlink="http://www.w3.org/1999/xlink" style="isolation:isolate" viewBox="0 0 70 26" width="70" height="26"><defs><clipPath id="_clipPath_6nXbZLnH7NtIydjhjoZbuHkORar01u5P"><rect width="70" height="26"/></clipPath></defs><g clip-path="url(#_clipPath_6nXbZLnH7NtIydjhjoZbuHkORar01u5P)"><g id="Brand"><g id="Logotype"><path d=" M 26.379 5.789 L 27.149 5.789 L 27.149 17.232 L 27.149 17.232 Q 27.13 17.945 27.515 18.32 L 27.515 18.32 L 27.515 18.32 Q 27.901 18.696 28.613 18.696 L 28.613 18.696 L 29.673 18.696 L 29.769 19.255 L 29.769 19.255 Q 29.307 19.409 28.421 19.409 L 28.421 19.409 L 28.421 19.409 Q 27.477 19.409 26.928 18.869 L 26.928 18.869 L 26.928 18.869 Q 26.379 18.33 26.379 17.347 L 26.379 17.347 L 26.379 5.789 Z  M 35.048 15.017 L 35.048 15.017 L 30.097 15.017 L 30.097 15.017 Q 30.174 17.136 30.983 17.974 L 30.983 17.974 L 30.983 17.974 Q 31.792 18.812 33.603 18.812 L 33.603 18.812 L 33.603 18.812 Q 35.202 18.812 36.781 18.58 L 36.781 18.58 L 36.878 19.12 L 36.878 19.12 Q 35.722 19.505 33.506 19.505 L 33.506 19.505 L 33.506 19.505 Q 31.253 19.505 30.27 18.378 L 30.27 18.378 L 30.27 18.378 Q 29.288 17.251 29.288 14.593 L 29.288 14.593 L 29.288 14.593 Q 29.288 11.934 30.222 10.846 L 30.222 10.846 L 30.222 10.846 Q 31.156 9.757 33.352 9.757 L 33.352 9.757 L 33.352 9.757 Q 37.032 9.757 37.09 12.493 L 37.09 12.493 L 37.09 12.493 Q 37.128 13.764 36.637 14.39 L 36.637 14.39 L 36.637 14.39 Q 36.146 15.017 35.048 15.017 Z  M 30.097 14.381 L 30.097 14.381 L 34.932 14.381 L 34.932 14.381 Q 36.358 14.381 36.3 12.531 L 36.3 12.531 L 36.3 12.531 Q 36.281 11.453 35.577 10.952 L 35.577 10.952 L 35.577 10.952 Q 34.874 10.451 33.391 10.451 L 33.391 10.451 L 33.391 10.451 Q 31.58 10.451 30.848 11.318 L 30.848 11.318 L 30.848 11.318 Q 30.116 12.185 30.097 14.381 Z  M 37.976 10.74 L 37.976 10.74 L 37.899 10.162 L 37.899 10.162 Q 40.827 9.757 42.329 9.757 L 42.329 9.757 L 42.329 9.757 Q 45.065 9.757 45.065 12.454 L 45.065 12.454 L 45.065 19.274 L 44.487 19.274 L 44.352 17.559 L 44.352 17.559 Q 43.639 18.253 42.435 18.831 L 42.435 18.831 L 42.435 18.831 Q 41.231 19.409 40.037 19.409 L 40.037 19.409 L 40.037 19.409 Q 38.843 19.409 38.178 18.783 L 38.178 18.783 L 38.178 18.783 Q 37.513 18.157 37.513 17.001 L 37.513 17.001 L 37.513 15.845 L 37.513 15.845 Q 37.513 14.785 38.12 14.207 L 38.12 14.207 L 38.12 14.207 Q 38.727 13.629 39.825 13.629 L 39.825 13.629 L 44.294 13.629 L 44.294 12.454 L 44.294 12.454 Q 44.294 11.491 43.832 10.971 L 43.832 10.971 L 43.832 10.971 Q 43.37 10.451 42.233 10.451 L 42.233 10.451 L 42.233 10.451 Q 40.576 10.451 37.976 10.74 Z  M 38.303 15.903 L 38.303 15.903 L 38.303 16.943 L 38.303 16.943 Q 38.303 18.677 40.114 18.696 L 40.114 18.696 L 40.114 18.696 Q 41.077 18.715 42.272 18.205 L 42.272 18.205 L 42.272 18.205 Q 43.466 17.694 44.294 16.924 L 44.294 16.924 L 44.294 14.246 L 39.902 14.304 L 39.902 14.304 Q 38.303 14.323 38.303 15.903 Z  M 52 5.596 L 51.962 6.174 L 49.881 6.174 L 49.881 6.174 Q 48.802 6.174 48.35 6.617 L 48.35 6.617 L 48.35 6.617 Q 47.897 7.06 47.897 8.158 L 47.897 8.158 L 47.897 9.989 L 51.21 9.989 L 51.21 10.644 L 47.897 10.644 L 47.897 19.274 L 47.126 19.274 L 47.126 10.644 L 45.45 10.644 L 45.45 10.085 L 47.126 10.008 L 47.126 8.12 L 47.126 8.12 Q 47.126 6.791 47.714 6.145 L 47.714 6.145 L 47.714 6.145 Q 48.301 5.5 49.631 5.5 L 49.631 5.5 L 49.631 5.5 Q 51.153 5.5 52 5.596 L 52 5.596 Z " fill-rule="evenodd" fill="rgb(73,101,115)"/><path d=" M 52.203 11.232 L 52.203 11.232 L 52.108 10.221 L 52.108 10.221 Q 53.499 9.988 54.781 9.988 L 54.781 9.988 L 54.781 9.988 Q 56.334 9.988 57.009 10.442 L 57.009 10.442 L 57.009 10.442 Q 57.684 10.895 57.684 12.061 L 57.684 12.061 L 57.684 12.061 Q 57.684 14.069 56.32 14.315 L 56.32 14.315 L 56.32 14.367 L 56.32 14.367 Q 57.184 14.51 57.542 15.06 L 57.542 15.06 L 57.542 15.06 Q 57.9 15.611 57.927 16.608 L 57.927 16.608 L 57.927 16.608 Q 57.954 17.994 57.265 18.629 L 57.265 18.629 L 57.265 18.629 Q 56.577 19.264 54.943 19.264 L 54.943 19.264 L 54.943 19.264 Q 53.661 19.264 51.96 19.031 L 51.96 19.031 L 52.041 17.981 L 52.041 17.981 Q 53.62 18.111 54.606 18.111 L 54.606 18.111 L 54.606 18.111 Q 55.699 18.111 56.145 17.748 L 56.145 17.748 L 56.145 17.748 Q 56.59 17.386 56.59 16.466 L 56.59 16.466 L 56.59 16.466 Q 56.59 15.676 56.226 15.293 L 56.226 15.293 L 56.226 15.293 Q 55.861 14.911 54.835 14.911 L 54.835 14.911 L 53.121 14.911 L 53.121 13.901 L 54.835 13.901 L 54.835 13.901 Q 55.794 13.888 56.091 13.499 L 56.091 13.499 L 56.091 13.499 Q 56.388 13.11 56.388 12.372 L 56.388 12.372 L 56.388 12.372 Q 56.374 11.582 56.01 11.355 L 56.01 11.355 L 56.01 11.355 Q 55.645 11.128 54.579 11.128 L 54.579 11.128 L 54.579 11.128 Q 53.472 11.128 52.203 11.232 Z  M 58.575 19.096 L 58.575 19.096 L 58.575 10.157 L 58.575 10.157 Q 60.343 10.04 61.936 10.04 L 61.936 10.04 L 61.936 10.04 Q 63.988 10.04 64.805 11.038 L 64.805 11.038 L 64.805 11.038 Q 65.621 12.035 65.621 14.626 L 65.621 14.626 L 65.621 14.626 Q 65.621 17.217 64.805 18.215 L 64.805 18.215 L 64.805 18.215 Q 63.988 19.212 61.936 19.212 L 61.936 19.212 L 61.936 19.212 Q 60.343 19.212 58.575 19.096 Z  M 59.924 11.18 L 59.924 11.18 L 59.924 18.046 L 59.924 18.046 Q 60.788 18.085 61.936 18.085 L 61.936 18.085 L 61.936 18.085 Q 63.205 18.085 63.698 17.334 L 63.698 17.334 L 63.698 17.334 Q 64.19 16.582 64.19 14.626 L 64.19 14.626 L 64.19 14.626 Q 64.19 12.67 63.698 11.919 L 63.698 11.919 L 63.698 11.919 Q 63.205 11.167 61.936 11.167 L 61.936 11.167 L 61.936 11.167 Q 61.531 11.167 60.863 11.174 L 60.863 11.174 L 60.863 11.174 Q 60.194 11.18 59.924 11.18 Z " fill-rule="evenodd" fill="rgb(73,101,115)"/></g><g id="Logo"><path d="M 6.719 4 L 20.039 4 C 21.33 4 22.379 5.049 22.379 6.34 L 22.379 19.66 C 22.379 20.951 21.33 22 20.039 22 L 6.719 22 C 5.427 22 4.379 20.951 4.379 19.66 L 4.379 6.34 C 4.379 5.049 5.427 4 6.719 4 Z" style="stroke:none;fill:#496573;stroke-miterlimit:10;"/><path d=" M 15.245 8.567 C 15.239 8.352 15.037 8.108 14.834 8.199 L 8.437 11.063 C 8.234 11.153 8.098 11.26 8.05 11.471 L 6.885 16.596 C 6.837 16.807 7.075 16.975 7.296 16.964 L 15.245 8.567 Z " fill="rgb(255,255,255)"/><path d=" M 19.043 6.52 C 19.435 6.445 19.955 6.587 19.869 6.86 L 17.171 15.488 C 17.086 15.761 16.946 15.962 16.583 16.101 L 7.769 19.457 C 7.406 19.595 7.009 19.38 6.944 19.116 L 19.043 6.52 Z " fill="rgb(255,255,255)"/></g></g></g></svg>